<?xml version="1.0" encoding="UTF-8"?><svg id="Layer_2" xmlns="http://www.w3.org/2000/svg" viewBox="0 0 2347.39 464.27"><defs><style>.cls-1,.cls-2{fill:#fff;}.cls-2{stroke:#fff;stroke-miterlimit:10;}</style></defs><g id="Layer_1-2"><path class="cls-1" d="M883.24,20v424.27H20V20h863.24M903.24,0H0v464.27h903.24V0h0Z"/><path class="cls-2" d="M107.95,234.17c0-57.17,41.59-100.39,96.46-100.39,32.11,0,49.32,14.77,55.82,14.77,8.54,0,5.42-8.94,13.28-8.94,4.34,0,6.23,2.03,6.23,6.64v50.67c0,3.52-1.76,5.83-4.61,5.83s-5.01-1.08-7.32-6.5c-12.87-31.16-36.85-49.45-64.62-49.45-37.53,0-65.17,32.92-65.17,77.36,0,47.96,30.62,81.97,73.7,81.97,26.01,0,47.28-14.23,63.27-42.13,1.49-2.98,4.2-4.06,6.5-3.52,3.12.81,4.88,3.52,3.52,6.91-13.68,39.15-45.39,63.13-84.27,63.13-53.65,0-92.8-40.78-92.8-96.33Z"/><path class="cls-2" d="M306.68,327.24c-3.66,0-4.34-2.57-4.34-5.42,0-3.25.14-5.55,4.88-6.1l11.79-1.22c13.28-1.22,17.07-6.91,17.07-20.19v-124.37c0-13.28-3.79-18.97-17.07-20.19l-11.79-1.22c-4.74-.54-4.88-2.85-4.88-6.1,0-2.85.68-5.42,4.34-5.42,13.41,0,28.45.41,43.62.41h.41c15.17,0,30.08-.41,43.62-.41,3.52,0,4.34,2.57,4.34,5.42,0,3.25-.27,5.55-4.88,6.1l-11.79,1.22c-13.28,1.22-17.07,6.91-17.07,20.19v122.75c0,17.21,5.01,21.81,24.52,21.81h34.14c16.53,0,20.73-2.85,32.24-43.76,1.08-3.79,2.98-5.42,5.96-5.42s5.01,2.44,5.01,5.55v49.99c0,4.34-1.9,6.23-6.37,6.23-36.31,0-65.98,0-106.89-.27h-3.25c-15.17,0-30.21.41-43.62.41Z"/><path class="cls-2" d="M533.27,326.83c-15.04,0-30.08.41-43.35.41-3.66,0-4.34-2.57-4.34-5.42,0-3.25.14-5.55,4.88-6.1l11.79-1.22c13.28-1.22,17.07-6.91,17.07-20.19v-124.37c0-13.28-3.79-18.97-17.07-20.19l-11.79-1.22c-4.74-.54-4.88-2.85-4.88-6.1,0-2.85.68-5.42,4.34-5.42,13.28,0,28.32.41,43.35.41s29.94-.41,43.35-.41c3.52,0,4.34,2.57,4.34,5.42,0,3.25-.27,5.55-4.88,6.1l-11.79,1.22c-13.28,1.22-17.07,6.91-17.07,20.19v124.37c0,13.28,3.79,18.97,17.07,20.19l11.79,1.22c4.61.54,4.88,2.85,4.88,6.1,0,2.85-.81,5.42-4.34,5.42-13.41,0-28.04-.41-43.08-.41h-.27Z"/><path class="cls-2" d="M604.53,315.73l11.79-1.08c13.28-1.35,17.07-6.91,17.07-20.19v-124.64c0-13.28-3.79-18.83-17.07-20.19l-11.79-1.08c-4.74-.54-4.88-2.98-4.88-6.1s.68-5.55,4.34-5.55c13.41,0,28.45.41,43.62.41h2.3c8.13,0,23.03-.54,31.97-.54,55.41,0,86.57,19.92,86.57,54.33,0,25.06-16.66,45.25-45.93,54.73l28.99,46.06c11.38,18.15,16.26,21.81,38.61,23.44,3.52.27,5.15,2.57,5.15,6.1,0,3.93-1.76,5.83-5.55,5.83-3.39,0-13.14-.27-21.95-.27s-14.23.27-17.48.27c-8.67,0-11.52-2.17-15.58-8.54l-34.14-55.82c-5.28-8.67-10.84-11.38-22.63-11.38h-15.85v42.95c0,13.28,4.06,18.83,18.29,20.19l12.6,1.08c5.01.54,5.28,2.98,5.28,6.1s-.81,5.55-4.74,5.55c-14.23,0-30.21-.41-46.33-.41-15.04,0-29.94.41-43.22.41-3.66,0-4.34-2.57-4.34-5.55s.14-5.55,4.88-6.1ZM736.63,192.71c0-27.5-20.73-43.49-52.7-43.49-16.53,0-21.81,4.2-21.81,17.61v72.48h18.7c34.01,0,55.82-18.29,55.82-46.61Z"/><path class="cls-1" d="M1057.13,158.45c0-26.59,19.34-46.69,44.86-46.69,14.93,0,22.93,6.87,25.96,6.87,3.97,0,2.52-4.16,6.17-4.16,2.02,0,2.9.94,2.9,3.09v23.56c0,1.64-.82,2.71-2.14,2.71s-2.33-.5-3.4-3.02c-5.99-14.49-17.14-23-30.05-23-17.45,0-30.3,15.31-30.3,35.98,0,22.3,14.24,38.12,34.27,38.12,12.1,0,21.99-6.62,29.42-19.59.69-1.39,1.95-1.89,3.02-1.64,1.45.38,2.27,1.64,1.64,3.21-6.36,18.21-21.11,29.36-39.19,29.36-24.95,0-43.16-18.96-43.16-44.8Z"/><path class="cls-1" d="M1148.05,171.24c0-18.4,13.04-32.07,30.68-32.07s30.68,13.67,30.68,32.07-13.17,32.01-30.68,32.01-30.68-13.86-30.68-32.01ZM1195.81,171.24c0-15.69-7.06-26.78-17.07-26.78s-17.07,11.09-17.07,26.78,7.25,26.71,17.07,26.71,17.07-11.28,17.07-26.71Z"/><path class="cls-1" d="M1221.91,182.02v-26.46c0-6.99-.69-8.25-6.68-8.63-2.52-.06-2.84-.95-2.84-2.33,0-1.51.44-2.33,1.76-2.52l15.81-2.58c1.01-.19,1.76-.31,2.46-.31,1.39,0,2.02.95,2.02,2.39,0,1.83-.76,7.18-.76,13.99v21.04c0,11.91,4.22,17.39,12.92,17.39,8,0,14.18-6.49,14.18-14.87v-23.44c0-6.99-.63-8.25-6.68-8.63-2.52-.13-2.77-1.01-2.77-2.39s.44-2.33,1.76-2.52l15.75-2.58c1.01-.13,1.83-.25,2.52-.25,1.39,0,1.95.88,1.95,2.39,0,1.76-.76,7.18-.76,13.99v29.11c0,7.06.63,7.94,6.3,8.38,2.39.13,2.84.69,2.84,2.21s-.38,2.21-1.45,2.52l-14.62,4.79c-1.51.44-2.02.63-2.71.63-1.39,0-2.08-.95-2.08-2.39,0-2.46.44-6.55.82-9.51-5.29,7.69-12.73,11.84-21.48,11.84-11.34,0-18.27-8.06-18.27-21.23Z"/><path class="cls-1" d="M1329.54,201.86c-1.45,0-1.83-.88-1.83-2.14,0-1.51.31-2.71,2.02-2.9,5.92-.38,7.75-1.57,7.75-5.86v-27.85c0-9.83-4.03-15.37-12.16-15.44-7.81,0-14.81,5.8-14.81,13.55v29.67c0,4.22,1.76,5.42,7.75,5.86,1.64.13,1.95,1.32,1.95,2.84,0,1.32-.31,2.21-1.83,2.21-4.47,0-9.95-.25-13.1-.25h-1.89c-3.15,0-9.01.25-13.55.25-1.45,0-1.89-.88-1.89-2.21,0-1.51.31-2.71,2.02-2.84,6.8-.57,8.63-1.7,8.63-5.92v-33.01c0-6.3-.82-7.43-6.8-7.62-2.02-.06-2.39-.88-2.39-2.14,0-1.64.38-2.39,1.89-2.9l15.06-5.29c1.2-.38,1.95-.63,2.58-.63,1.32,0,2.08,1.07,2.08,2.33,0,2.52-.69,5.48-.69,7.75,5.8-6.55,14.11-10.14,20.85-10.14,11.4,0,18.15,7.56,18.15,20.22v31.56c0,4.16,1.83,5.36,8.69,5.86,1.64.19,1.95,1.39,1.95,2.9,0,1.32-.44,2.14-1.83,2.14-4.6,0-10.46-.25-13.61-.25h-1.89c-3.15,0-8.57.25-13.1.25Z"/><path class="cls-1" d="M1362.16,172.63c0-19.34,13.61-33.45,31-33.45,14.24,0,21.74,8.13,21.74,15.75,0,3.53-2.14,6.74-6.05,6.74s-5.99-2.96-6.68-7.12c-1.01-6.05-3.84-9.95-10.52-9.95-10.02,0-18.21,9.7-18.21,23.44s9.01,23.94,20.48,23.94c7.31,0,11.97-3.34,16.32-8.06,1.01-1.07,1.83-1.83,2.96-1.83,1.76,0,2.52,1.64,2.08,3.09-2.39,7.94-11.97,18.08-24.95,18.08-16.63,0-28.16-12.98-28.16-30.62Z"/><path class="cls-1" d="M1422.86,201.86c-1.39,0-1.83-.82-1.83-2.14,0-1.51.31-2.71,1.95-2.9,6.8-.5,8.69-1.7,8.69-5.86v-34.08c0-5.23-.88-6.62-6.36-6.87-2.46,0-2.83-.76-2.83-2.14,0-1.7.44-2.33,1.76-2.77l14.11-5.04c1.64-.57,2.65-.88,3.46-.88,1.51,0,2.02,1.07,2.02,2.39s-.38,3.09-.38,6.99v42.4c0,4.16,1.83,5.36,8.69,5.86,1.64.19,1.95,1.39,1.95,2.9,0,1.32-.44,2.14-1.83,2.14-4.6,0-10.46-.25-13.61-.25h-2.21c-3.15,0-9.01.25-13.61.25ZM1429.03,122.61c0-4.16,3.72-8.19,8.38-8.19s8.32,4.03,8.32,8.19-3.72,8.32-8.32,8.32-8.38-3.97-8.38-8.32Z"/><path class="cls-1" d="M1461.32,201.86c-1.39,0-1.83-.82-1.83-2.14,0-1.51.31-2.71,1.95-2.9,6.8-.5,8.69-1.7,8.69-5.86v-63.51c0-5.23-.88-6.68-6.36-6.87-2.46,0-2.84-.76-2.84-2.14,0-1.76.44-2.33,1.76-2.77l14.11-5.04c1.64-.57,2.65-.88,3.47-.88,1.51,0,2.02,1.01,2.02,2.33s-.38,3.15-.38,7.06v71.82c0,4.16,1.83,5.36,8.69,5.86,1.64.19,1.95,1.39,1.95,2.9,0,1.32-.44,2.14-1.83,2.14-4.6,0-10.46-.25-13.61-.25h-2.21c-3.15,0-9.01.25-13.61.25Z"/><path class="cls-1" d="M1531.06,171.24c0-18.4,13.04-32.07,30.68-32.07s30.68,13.67,30.68,32.07-13.17,32.01-30.68,32.01-30.68-13.86-30.68-32.01ZM1578.82,171.24c0-15.69-7.06-26.78-17.07-26.78s-17.07,11.09-17.07,26.78,7.25,26.71,17.07,26.71,17.07-11.28,17.07-26.71Z"/><path class="cls-1" d="M1637.96,201.86c-1.45,0-1.83-.88-1.83-2.14,0-1.51.31-2.71,2.02-2.9,5.92-.38,7.75-1.57,7.75-5.86v-27.85c0-9.83-4.03-15.37-12.16-15.44-7.81,0-14.81,5.8-14.81,13.55v29.67c0,4.22,1.76,5.42,7.75,5.86,1.64.13,1.95,1.32,1.95,2.84,0,1.32-.31,2.21-1.83,2.21-4.47,0-9.95-.25-13.1-.25h-1.89c-3.15,0-9.01.25-13.55.25-1.45,0-1.89-.88-1.89-2.21,0-1.51.31-2.71,2.02-2.84,6.8-.57,8.63-1.7,8.63-5.92v-33.01c0-6.3-.82-7.43-6.8-7.62-2.02-.06-2.39-.88-2.39-2.14,0-1.64.38-2.39,1.89-2.9l15.06-5.29c1.2-.38,1.95-.63,2.58-.63,1.32,0,2.08,1.07,2.08,2.33,0,2.52-.69,5.48-.69,7.75,5.8-6.55,14.11-10.14,20.85-10.14,11.4,0,18.15,7.56,18.15,20.22v31.56c0,4.16,1.83,5.36,8.69,5.86,1.64.19,1.95,1.39,1.95,2.9,0,1.32-.44,2.14-1.83,2.14-4.6,0-10.46-.25-13.61-.25h-1.89c-3.15,0-8.57.25-13.1.25Z"/><path class="cls-1" d="M1707.25,201.74c-1.7,0-2.02-1.2-2.02-2.52,0-1.51.06-2.58,2.27-2.84l5.48-.57c6.17-.57,7.94-3.21,7.94-9.39v-57.84c0-6.17-1.76-8.82-7.94-9.39l-5.48-.57c-2.21-.25-2.27-1.32-2.27-2.84,0-1.32.31-2.52,2.02-2.52,6.24,0,13.23.19,20.29.19h.19c7.06,0,13.99-.19,20.29-.19,1.64,0,2.02,1.2,2.02,2.52,0,1.51-.13,2.58-2.27,2.84l-5.48.57c-6.17.57-7.94,3.21-7.94,9.39v57.08c0,8,2.33,10.14,11.4,10.14h15.88c7.69,0,9.64-1.32,15-20.35.5-1.76,1.39-2.52,2.77-2.52s2.33,1.13,2.33,2.58v23.25c0,2.02-.88,2.9-2.96,2.9-16.89,0-30.68,0-49.71-.13h-1.51c-7.06,0-14.05.19-20.29.19Z"/><path class="cls-1" d="M1790.67,201.86c-1.39,0-1.83-.82-1.83-2.14,0-1.51.31-2.71,1.95-2.9,6.8-.5,8.69-1.7,8.69-5.86v-34.08c0-5.23-.88-6.62-6.36-6.87-2.46,0-2.83-.76-2.83-2.14,0-1.7.44-2.33,1.76-2.77l14.11-5.04c1.64-.57,2.65-.88,3.46-.88,1.51,0,2.02,1.07,2.02,2.39s-.38,3.09-.38,6.99v42.4c0,4.16,1.83,5.36,8.69,5.86,1.64.19,1.95,1.39,1.95,2.9,0,1.32-.44,2.14-1.83,2.14-4.6,0-10.46-.25-13.61-.25h-2.21c-3.15,0-9.01.25-13.61.25ZM1796.84,122.61c0-4.16,3.72-8.19,8.38-8.19s8.32,4.03,8.32,8.19-3.72,8.32-8.32,8.32-8.38-3.97-8.38-8.32Z"/><path class="cls-1" d="M1840.13,199.28c-3.21,0-4.03,3.15-6.8,3.15-1.32,0-2.27-1.01-2.27-2.65v-72.33c0-5.23-.88-6.68-6.3-6.87-2.52,0-2.9-.76-2.9-2.14,0-1.76.44-2.33,1.83-2.77l14.05-5.04c1.64-.57,2.65-.88,3.46-.88,1.51,0,2.02,1.01,2.02,2.33s-.38,3.15-.38,7.06v27.28c0,.63.38.69.88.32,5.04-4.79,11.78-7.56,18.33-7.56,15.12,0,25.2,12.54,25.2,31.56s-12.03,32.51-28.86,32.51c-10.14,0-14.93-3.97-18.27-3.97ZM1874.09,172.82c0-15.69-6.8-26.02-17.14-26.02-7.56,0-14.11,5.92-14.11,12.85v24.51c0,7.37,6.62,13.55,14.68,13.55,10.21,0,16.57-9.51,16.57-24.89Z"/><path class="cls-1" d="M1893.66,201.86c-1.45,0-1.89-.82-1.89-2.14,0-1.51.31-2.71,2.02-2.9,6.8-.5,8.63-1.7,8.63-5.86v-33.14c0-6.3-.82-7.43-6.8-7.62-2.02-.13-2.39-.95-2.39-2.14,0-1.7.38-2.46,1.89-2.96l15.06-5.29c1.2-.38,1.95-.57,2.58-.57,1.32,0,2.08,1.01,2.08,2.33,0,2.96-1.01,6.62-.63,9.07,4.16-6.68,11.78-11.47,18.08-11.47,5.73,0,9.83,3.65,9.83,8.63,0,4.22-3.21,7.56-7.18,7.56-5.67,0-5.99-6.05-10.4-6.05-2.52,0-6.36,2.77-8.32,5.99-1.26,2.02-1.89,4.54-1.89,8.13v27.53c0,3.97,3.78,5.54,13.67,5.86,1.7.13,1.95,1.32,1.95,2.9,0,1.32-.44,2.14-1.83,2.14-6.93,0-14.81-.25-19.78-.25h-1.13c-3.15,0-9.01.25-13.55.25Z"/><path class="cls-1" d="M1949.12,188.63c0-7.62,4.73-13.1,13.36-16.19l17.01-5.99c2.96-1.01,3.53-1.76,3.53-4.35v-6.05c0-6.68-3.59-11.09-10.84-11.09-8.06,0-10.58,5.23-11.84,9.58-1.13,3.97-3.4,6.05-6.55,6.05s-5.48-2.21-5.48-6.05c0-7.5,9.77-15.37,24.19-15.37,12.47,0,22.3,6.05,22.3,17.64v33.2c0,2.71,1.01,4.16,2.84,4.16s2.65-2.33,4.41-2.33c1.32,0,2.08.95,2.08,1.95,0,3.09-3.84,8.82-10.33,8.82-5.99,0-9.89-3.78-10.84-9.07-3.72,5.61-10.96,9.7-17.83,9.7-9.7,0-16-5.92-16-14.62ZM1983.02,183.4v-12.6l-12.79,4.6c-5.61,2.08-8.82,5.67-8.82,10.4,0,5.23,3.21,8.38,8.82,8.38,6.11,0,12.79-5.48,12.79-10.77Z"/><path class="cls-1" d="M2011.73,201.86c-1.45,0-1.89-.82-1.89-2.14,0-1.51.31-2.71,2.02-2.9,6.8-.5,8.63-1.7,8.63-5.86v-33.14c0-6.3-.82-7.43-6.8-7.62-2.02-.13-2.39-.95-2.39-2.14,0-1.7.38-2.46,1.89-2.96l15.06-5.29c1.2-.38,1.95-.57,2.58-.57,1.32,0,2.08,1.01,2.08,2.33,0,2.96-1.01,6.62-.63,9.07,4.16-6.68,11.78-11.47,18.08-11.47,5.73,0,9.83,3.65,9.83,8.63,0,4.22-3.21,7.56-7.18,7.56-5.67,0-5.99-6.05-10.4-6.05-2.52,0-6.36,2.77-8.32,5.99-1.26,2.02-1.89,4.54-1.89,8.13v27.53c0,3.97,3.78,5.54,13.67,5.86,1.7.13,1.95,1.32,1.95,2.9,0,1.32-.44,2.14-1.83,2.14-6.93,0-14.81-.25-19.78-.25h-1.13c-3.15,0-9.01.25-13.55.25Z"/><path class="cls-1" d="M2065.56,140.56c3.84,0,8.82.25,11.47.25h3.59c3.59,0,10.21-.25,15.37-.25,1.58,0,2.08.88,2.08,2.21,0,1.45-.31,2.65-2.21,2.83-7.75.57-9.89,1.7-8.32,5.61l16.32,39.38,15.44-39.38c1.51-3.91-.69-5.04-8.44-5.61-1.89-.19-2.27-1.39-2.27-2.83,0-1.32.5-2.21,2.14-2.21,4.28,0,9.58.19,13.36.25,2.96-.06,7.18-.25,10.65-.25,1.26,0,1.64.88,1.64,2.21,0,1.45-.25,2.65-1.76,2.83-6.24.57-7.81,1.7-9.32,5.61l-23.69,59.35c-4.41,10.9-10.08,16.38-17.01,16.38-5.29,0-9.26-3.47-9.26-8.13,0-3.97,2.96-7.06,6.8-7.06,4.41,0,5.54,4.16,8.63,4.16s5.48-3.97,5.48-9.32c0-3.59-1.2-8.25-3.34-13.23l-18.33-42.21c-1.64-3.84-3.15-4.98-8.88-5.54-1.45-.19-1.7-1.39-1.7-2.83,0-1.32.38-2.21,1.58-2.21Z"/><path class="cls-1" d="M2173.85,182.33c0-9.45,6.68-17.26,18.84-22.11-8.06-8-12.29-16.51-12.29-24.51,0-13.48,12.03-23.94,27.6-23.94s26.33,9.77,26.33,22.56c0,11.47-8.88,20.67-24.32,25.33l23,21.61c4.1-4.54,7.88-10.96,9.07-15.18,1.01-3.21-.38-4.79-4.41-5.1l-2.65-.13c-1.45-.06-2.21-1.07-2.21-3.09,0-1.64.69-2.33,2.08-2.33l13.55.13c4.54,0,8-.13,14.05-.13,1.39,0,2.02.69,2.02,2.46,0,1.89-.69,2.77-2.21,2.96l-5.48.5c-3.15.25-5.17,1.7-7.37,5.73-3.28,5.99-7.75,12.6-12.35,18.21l5.61,5.54c3.72,3.78,7.56,5.1,14.68,5.23,1.64.06,2.39,1.13,2.39,3.02,0,1.7-.88,2.77-2.52,2.71-1.7-.13-4.03-.19-9.64-.19-2.96,0-5.48.19-7.37.19-3.28,0-4.85-.88-8.57-4.54l-3.09-3.09c-7.5,5.92-17.07,9.07-27.28,9.07-16.19,0-27.47-8.57-27.47-20.92ZM2224.25,190.02l-27.22-25.96c-6.24,4.1-9.64,9.77-9.64,15.94,0,9.32,7.88,16.19,18.4,16.19,6.36,0,12.98-2.21,18.46-6.17ZM2221.04,132.56c0-8.76-5.86-15.25-13.67-15.25s-14.11,6.74-14.11,15.25c0,7.5,4.47,15.75,12.54,23.06,9.64-5.8,15.25-14.18,15.25-23.06Z"/><path class="cls-1" d="M1077.67,352.75c-6.99,0-13.99.19-20.16.19-1.7,0-2.02-1.2-2.02-2.52,0-1.51.06-2.58,2.27-2.84l5.48-.57c6.17-.57,7.94-3.21,7.94-9.39v-57.84c0-6.17-1.76-8.82-7.94-9.39l-5.48-.57c-2.21-.25-2.27-1.32-2.27-2.84,0-1.32.31-2.52,2.02-2.52,6.17,0,13.17.19,20.16.19s13.92-.19,20.16-.19c1.64,0,2.02,1.2,2.02,2.52,0,1.51-.13,2.58-2.27,2.84l-5.48.57c-6.17.57-7.94,3.21-7.94,9.39v57.84c0,6.17,1.76,8.82,7.94,9.39l5.48.57c2.14.25,2.27,1.32,2.27,2.84,0,1.32-.38,2.52-2.02,2.52-6.24,0-13.04-.19-20.04-.19h-.13Z"/><path class="cls-1" d="M1148.59,353.06c-1.45,0-1.83-.88-1.83-2.14,0-1.51.31-2.71,2.02-2.9,5.92-.38,7.75-1.57,7.75-5.86v-27.85c0-9.83-4.03-15.37-12.16-15.44-7.81,0-14.81,5.8-14.81,13.55v29.67c0,4.22,1.76,5.42,7.75,5.86,1.64.13,1.95,1.32,1.95,2.84,0,1.32-.31,2.21-1.83,2.21-4.47,0-9.95-.25-13.1-.25h-1.89c-3.15,0-9.01.25-13.55.25-1.45,0-1.89-.88-1.89-2.21,0-1.51.31-2.71,2.02-2.84,6.8-.57,8.63-1.7,8.63-5.92v-33.01c0-6.3-.82-7.43-6.8-7.62-2.02-.06-2.39-.88-2.39-2.14,0-1.64.38-2.39,1.89-2.9l15.06-5.29c1.2-.38,1.95-.63,2.58-.63,1.32,0,2.08,1.07,2.08,2.33,0,2.52-.69,5.48-.69,7.75,5.8-6.55,14.11-10.14,20.85-10.14,11.4,0,18.15,7.56,18.15,20.22v31.56c0,4.16,1.83,5.36,8.69,5.86,1.64.19,1.95,1.39,1.95,2.9,0,1.32-.44,2.14-1.83,2.14-4.6,0-10.46-.25-13.61-.25h-1.89c-3.15,0-8.57.25-13.1.25Z"/><path class="cls-1" d="M1186.91,353.06c-1.51,0-2.02-.82-2.02-2.14,0-1.51.31-2.71,2.21-2.9,7.5-.5,9.51-1.7,9.51-5.86v-43.28h-11.28c-1.2,0-1.95-.76-1.95-2.02s.5-1.83,1.57-2.08c2.58-.69,4.6-1.01,7.69-1.76,3.21-.76,3.97-1.83,3.97-5.1,0-16.44,8.38-26.97,21.99-26.97,10.08,0,15.37,5.23,16.63,11.03.95,4.41-1.45,7.75-5.17,7.75-4.22,0-5.54-3.4-6.05-6.87-.69-4.03-2.39-6.68-6.55-6.68-5.67,0-9.07,5.92-9.07,17.77v8.38l16.82-.44c1.89,0,2.71.63,2.71,2.02,0,2.77-2.65,5.48-5.29,5.48-4.66-.19-9.07-.13-14.24-.38v43.16c0,3.97,4.1,5.54,14.68,5.86,1.83.13,2.14,1.32,2.14,2.9,0,1.32-.5,2.14-1.95,2.14-7.5,0-15.94-.25-21.29-.25h-.06c-3.47,0-9.95.25-15,.25Z"/><path class="cls-1" d="M1228.91,322.44c0-18.4,13.04-32.07,30.68-32.07s30.68,13.67,30.68,32.07-13.17,32.01-30.68,32.01-30.68-13.86-30.68-32.01ZM1276.66,322.44c0-15.69-7.06-26.78-17.07-26.78s-17.07,11.09-17.07,26.78,7.25,26.71,17.07,26.71,17.07-11.28,17.07-26.71Z"/><path class="cls-1" d="M1296.11,353.06c-1.45,0-1.89-.82-1.89-2.14,0-1.51.31-2.71,2.02-2.9,6.8-.5,8.63-1.7,8.63-5.86v-33.14c0-6.3-.82-7.43-6.8-7.62-2.02-.13-2.39-.95-2.39-2.14,0-1.7.38-2.46,1.89-2.96l15.06-5.29c1.2-.38,1.95-.57,2.58-.57,1.32,0,2.08,1.01,2.08,2.33,0,2.96-1.01,6.62-.63,9.07,4.16-6.68,11.78-11.47,18.08-11.47,5.73,0,9.83,3.65,9.83,8.63,0,4.22-3.21,7.56-7.18,7.56-5.67,0-5.99-6.05-10.4-6.05-2.52,0-6.36,2.77-8.32,5.99-1.26,2.02-1.89,4.54-1.89,8.13v27.53c0,3.97,3.78,5.54,13.67,5.86,1.7.13,1.95,1.32,1.95,2.9,0,1.32-.44,2.14-1.83,2.14-6.93,0-14.81-.25-19.78-.25h-1.13c-3.15,0-9.01.25-13.55.25Z"/><path class="cls-1" d="M1389.83,353.06c-1.45,0-1.83-.88-1.83-2.14,0-1.51.31-2.71,1.95-2.9,5.99-.38,7.75-1.57,7.75-5.86v-26.78c0-11.84-3.47-16.51-11.66-16.51-7.69,0-14.3,6.36-14.3,13.8v29.49c0,4.28,1.76,5.48,7.75,5.86,1.64.19,1.95,1.39,1.95,2.9,0,1.26-.31,2.14-1.83,2.14-4.47,0-9.95-.25-13.1-.25h-1.89c-3.15,0-9.01.25-13.55.25-1.45,0-1.89-.82-1.89-2.14,0-1.51.31-2.71,2.02-2.9,6.8-.5,8.63-1.7,8.63-5.86v-33.14c0-6.3-.82-7.43-6.8-7.62-2.02-.06-2.39-.88-2.39-2.14,0-1.64.38-2.39,1.89-2.9l15.06-5.29c1.2-.38,1.95-.63,2.58-.63,1.32,0,2.08,1.07,2.08,2.33,0,2.58-.76,5.73-.69,8.13,5.1-6.43,13.04-10.52,20.41-10.52,7.88,0,13.29,3.97,16,11.78,6.11-7.62,13.99-11.78,22.11-11.78,10.65,0,17.39,8.19,17.39,21.04v30.75c0,4.16,1.83,5.36,8.69,5.86,1.64.19,1.95,1.39,1.95,2.9,0,1.32-.44,2.14-1.83,2.14-4.6,0-10.46-.25-13.61-.25h-1.83c-3.09,0-8.57.25-13.1.25-1.45,0-1.76-.88-1.76-2.14,0-1.51.25-2.71,1.95-2.9,5.99-.38,7.75-1.57,7.75-5.86v-26.46c0-11.4-3.84-16.82-11.72-16.82s-14.36,6.3-14.36,14.05v29.23c0,4.28,1.76,5.48,7.75,5.86,1.64.19,1.95,1.39,1.95,2.9,0,1.26-.31,2.14-1.83,2.14-4.47,0-9.95-.25-13.1-.25h-1.45c-3.15,0-8.57.25-13.1.25Z"/><path class="cls-1" d="M1464.3,339.83c0-7.62,4.73-13.1,13.36-16.19l17.01-5.99c2.96-1.01,3.53-1.76,3.53-4.35v-6.05c0-6.68-3.59-11.09-10.84-11.09-8.06,0-10.58,5.23-11.84,9.58-1.13,3.97-3.4,6.05-6.55,6.05s-5.48-2.21-5.48-6.05c0-7.5,9.77-15.37,24.19-15.37,12.47,0,22.3,6.05,22.3,17.64v33.2c0,2.71,1.01,4.16,2.84,4.16s2.65-2.33,4.41-2.33c1.32,0,2.08.95,2.08,1.95,0,3.09-3.84,8.82-10.33,8.82-5.99,0-9.89-3.78-10.84-9.07-3.72,5.61-10.96,9.7-17.83,9.7-9.7,0-16-5.92-16-14.62ZM1498.19,334.6v-12.6l-12.79,4.6c-5.61,2.08-8.82,5.67-8.82,10.4,0,5.23,3.21,8.38,8.82,8.38,6.11,0,12.79-5.48,12.79-10.77Z"/><path class="cls-1" d="M1528.89,334.67v-34.15c0-1.57-.44-1.95-1.95-1.95l-4.47-.19c-1.45,0-2.39-.82-2.39-2.21,0-1.07.63-1.95,1.7-2.84l16-14.62c.69-.63,1.26-.95,2.21-.95,1.01,0,1.57.69,1.57,1.76,0,3.28-.13,7.5-.25,12.92l19.09-.5c2.14-.06,2.96,1.26,2.96,3.34,0,2.39-1.2,4.1-3.78,4.1-3.09,0-15.06-.5-18.46-.63-.25,8.38-.44,19.03-.44,32.7,0,10.14,3.21,14.68,9.26,14.68,3.84,0,7.25-1.89,9.89-5.54.76-1.01,1.51-1.76,2.46-1.76,1.2,0,1.89.82,1.89,1.83,0,4.98-6.3,13.8-17.39,13.8s-17.89-7.12-17.89-19.78Z"/><path class="cls-1" d="M1570.32,353.06c-1.39,0-1.83-.82-1.83-2.14,0-1.51.31-2.71,1.95-2.9,6.8-.5,8.69-1.7,8.69-5.86v-34.08c0-5.23-.88-6.62-6.36-6.87-2.46,0-2.83-.76-2.83-2.14,0-1.7.44-2.33,1.76-2.77l14.11-5.04c1.64-.57,2.65-.88,3.46-.88,1.51,0,2.02,1.07,2.02,2.39s-.38,3.09-.38,6.99v42.4c0,4.16,1.83,5.36,8.69,5.86,1.64.19,1.95,1.39,1.95,2.9,0,1.32-.44,2.14-1.83,2.14-4.6,0-10.46-.25-13.61-.25h-2.21c-3.15,0-9.01.25-13.61.25ZM1576.5,273.81c0-4.16,3.72-8.19,8.38-8.19s8.32,4.03,8.32,8.19-3.72,8.32-8.32,8.32-8.38-3.97-8.38-8.32Z"/><path class="cls-1" d="M1604.48,322.44c0-18.4,13.04-32.07,30.68-32.07s30.68,13.67,30.68,32.07-13.17,32.01-30.68,32.01-30.68-13.86-30.68-32.01ZM1652.24,322.44c0-15.69-7.06-26.78-17.07-26.78s-17.07,11.09-17.07,26.78,7.25,26.71,17.07,26.71,17.07-11.28,17.07-26.71Z"/><path class="cls-1" d="M1711.38,353.06c-1.45,0-1.83-.88-1.83-2.14,0-1.51.31-2.71,2.02-2.9,5.92-.38,7.75-1.57,7.75-5.86v-27.85c0-9.83-4.03-15.37-12.16-15.44-7.81,0-14.81,5.8-14.81,13.55v29.67c0,4.22,1.76,5.42,7.75,5.86,1.64.13,1.95,1.32,1.95,2.84,0,1.32-.31,2.21-1.83,2.21-4.47,0-9.95-.25-13.1-.25h-1.89c-3.15,0-9.01.25-13.55.25-1.45,0-1.89-.88-1.89-2.21,0-1.51.31-2.71,2.02-2.84,6.8-.57,8.63-1.7,8.63-5.92v-33.01c0-6.3-.82-7.43-6.8-7.62-2.02-.06-2.39-.88-2.39-2.14,0-1.64.38-2.39,1.89-2.9l15.06-5.29c1.2-.38,1.95-.63,2.58-.63,1.32,0,2.08,1.07,2.08,2.33,0,2.52-.69,5.48-.69,7.75,5.8-6.55,14.11-10.14,20.85-10.14,11.4,0,18.15,7.56,18.15,20.22v31.56c0,4.16,1.83,5.36,8.69,5.86,1.64.19,1.95,1.39,1.95,2.9,0,1.32-.44,2.14-1.83,2.14-4.6,0-10.46-.25-13.61-.25h-1.89c-3.15,0-8.57.25-13.1.25Z"/><path class="cls-1" d="M1780.93,347.58l5.48-.5c6.17-.63,7.94-3.21,7.94-9.39v-57.96c0-6.17-1.76-8.76-7.94-9.39l-5.48-.5c-2.21-.25-2.27-1.39-2.27-2.84s.31-2.58,2.02-2.58c6.24,0,13.23.19,20.29.19h1.07c3.78,0,10.71-.25,14.87-.25,25.77,0,40.26,9.26,40.26,25.26,0,11.66-7.75,21.04-21.36,25.45l13.48,21.42c5.29,8.44,7.56,10.14,17.96,10.9,1.64.13,2.39,1.2,2.39,2.83,0,1.83-.82,2.71-2.58,2.71-1.58,0-6.11-.13-10.21-.13s-6.62.13-8.13.13c-4.03,0-5.36-1.01-7.25-3.97l-15.88-25.96c-2.46-4.03-5.04-5.29-10.52-5.29h-7.37v19.97c0,6.17,1.89,8.76,8.51,9.39l5.86.5c2.33.25,2.46,1.39,2.46,2.84s-.38,2.58-2.21,2.58c-6.62,0-14.05-.19-21.55-.19-6.99,0-13.92.19-20.1.19-1.7,0-2.02-1.2-2.02-2.58s.06-2.58,2.27-2.84ZM1842.35,290.38c0-12.79-9.64-20.22-24.51-20.22-7.69,0-10.14,1.95-10.14,8.19v33.71h8.69c15.81,0,25.96-8.51,25.96-21.67Z"/><path class="cls-1" d="M1870.89,323.58c0-18.78,13.23-33.2,30.18-33.2,15.56,0,23.81,11.15,23.81,23.31,0,1.64-.5,2.14-2.14,2.14h-40.2c-.13,1.26-.25,2.52-.25,3.84,0,13.23,8.06,23.63,20.29,23.63,7.5,0,12.16-3.47,16.51-8.19,1.01-1.07,1.83-1.83,2.96-1.83,1.76,0,2.52,1.64,2.08,3.09-2.39,7.94-11.59,18.08-25.2,18.08-16.51,0-28.04-12.66-28.04-30.87ZM1905.86,309.84c3.21-.19,4.66-1.83,4.66-4.1,0-5.29-3.91-9.77-10.84-9.77s-13.42,5.73-16.07,14.81l22.24-.95Z"/><path class="cls-1" d="M1939.03,350.99c-1.13-.57-1.7-1.39-2.21-2.9l-2.84-10.71c-.5-1.83,0-3.4,1.64-3.78,1.58-.38,2.65,1.01,4.41,4.03,4.54,7.43,10.71,11.4,17.33,11.4s11.03-3.59,11.03-9.01c0-4.79-3.53-7.5-14.24-10.71-13.67-4.22-19.78-10.27-19.78-19.66,0-11.4,8.82-19.28,21.61-19.28,5.17,0,12.6,1.26,16.95,2.84,1.39.57,2.02,1.2,2.14,2.58l1.7,11.15c.25,1.83-.25,2.96-1.7,3.21-1.58.38-2.58-.5-3.4-2.65-2.71-7.06-8.82-11.84-15.94-11.84-6.55,0-11.28,3.97-11.28,9.39,0,4.85,3.91,8.06,12.92,10.77,15.06,4.54,21.04,10.14,21.04,19.66,0,11.47-8.88,18.96-22.43,18.96-4.91,0-10.02-1.07-16.95-3.47Z"/><path class="cls-1" d="M1986.42,322.44c0-18.4,13.04-32.07,30.68-32.07s30.68,13.67,30.68,32.07-13.17,32.01-30.68,32.01-30.68-13.86-30.68-32.01ZM2034.17,322.44c0-15.69-7.06-26.78-17.07-26.78s-17.07,11.09-17.07,26.78,7.25,26.71,17.07,26.71,17.07-11.28,17.07-26.71Z"/><path class="cls-1" d="M2060.28,333.22v-26.46c0-6.99-.69-8.25-6.68-8.63-2.52-.06-2.84-.95-2.84-2.33,0-1.51.44-2.33,1.76-2.52l15.81-2.58c1.01-.19,1.76-.31,2.46-.31,1.39,0,2.02.95,2.02,2.39,0,1.83-.76,7.18-.76,13.99v21.04c0,11.91,4.22,17.39,12.92,17.39,8,0,14.18-6.49,14.18-14.87v-23.44c0-6.99-.63-8.25-6.68-8.63-2.52-.13-2.77-1.01-2.77-2.39s.44-2.33,1.76-2.52l15.75-2.58c1.01-.13,1.83-.25,2.52-.25,1.39,0,1.95.88,1.95,2.39,0,1.76-.76,7.18-.76,13.99v29.11c0,7.06.63,7.94,6.3,8.38,2.39.13,2.83.69,2.83,2.21s-.38,2.21-1.45,2.52l-14.62,4.79c-1.51.44-2.02.63-2.71.63-1.39,0-2.08-.95-2.08-2.39,0-2.46.44-6.55.82-9.51-5.29,7.69-12.73,11.84-21.48,11.84-11.34,0-18.27-8.06-18.27-21.23Z"/><path class="cls-1" d="M2128.21,353.06c-1.45,0-1.89-.82-1.89-2.14,0-1.51.32-2.71,2.02-2.9,6.8-.5,8.63-1.7,8.63-5.86v-33.14c0-6.3-.82-7.43-6.8-7.62-2.02-.13-2.39-.95-2.39-2.14,0-1.7.38-2.46,1.89-2.96l15.06-5.29c1.2-.38,1.95-.57,2.58-.57,1.32,0,2.08,1.01,2.08,2.33,0,2.96-1.01,6.62-.63,9.07,4.16-6.68,11.78-11.47,18.08-11.47,5.73,0,9.83,3.65,9.83,8.63,0,4.22-3.21,7.56-7.18,7.56-5.67,0-5.99-6.05-10.4-6.05-2.52,0-6.36,2.77-8.32,5.99-1.26,2.02-1.89,4.54-1.89,8.13v27.53c0,3.97,3.78,5.54,13.67,5.86,1.7.13,1.95,1.32,1.95,2.9,0,1.32-.44,2.14-1.83,2.14-6.93,0-14.81-.25-19.78-.25h-1.13c-3.15,0-9.01.25-13.55.25Z"/><path class="cls-1" d="M2179.43,323.83c0-19.34,13.61-33.45,31-33.45,14.24,0,21.74,8.13,21.74,15.75,0,3.53-2.14,6.74-6.05,6.74s-5.99-2.96-6.68-7.12c-1.01-6.05-3.84-9.95-10.52-9.95-10.02,0-18.21,9.7-18.21,23.44s9.01,23.94,20.48,23.94c7.31,0,11.97-3.34,16.32-8.06,1.01-1.07,1.83-1.83,2.96-1.83,1.76,0,2.52,1.64,2.08,3.09-2.39,7.94-11.97,18.08-24.95,18.08-16.63,0-28.16-12.98-28.16-30.62Z"/><path class="cls-1" d="M2239.87,323.58c0-18.78,13.23-33.2,30.18-33.2,15.56,0,23.82,11.15,23.82,23.31,0,1.64-.5,2.14-2.14,2.14h-40.2c-.13,1.26-.25,2.52-.25,3.84,0,13.23,8.06,23.63,20.29,23.63,7.5,0,12.16-3.47,16.51-8.19,1.01-1.07,1.83-1.83,2.96-1.83,1.76,0,2.52,1.64,2.08,3.09-2.39,7.94-11.59,18.08-25.2,18.08-16.51,0-28.04-12.66-28.04-30.87ZM2274.84,309.84c3.21-.19,4.66-1.83,4.66-4.1,0-5.29-3.91-9.77-10.84-9.77s-13.42,5.73-16.07,14.81l22.24-.95Z"/><path class="cls-1" d="M2308.01,350.99c-1.13-.57-1.7-1.39-2.21-2.9l-2.83-10.71c-.5-1.83,0-3.4,1.64-3.78,1.57-.38,2.65,1.01,4.41,4.03,4.54,7.43,10.71,11.4,17.33,11.4s11.03-3.59,11.03-9.01c0-4.79-3.53-7.5-14.24-10.71-13.67-4.22-19.78-10.27-19.78-19.66,0-11.4,8.82-19.28,21.61-19.28,5.17,0,12.6,1.26,16.95,2.84,1.39.57,2.02,1.2,2.14,2.58l1.7,11.15c.25,1.83-.25,2.96-1.7,3.21-1.58.38-2.58-.5-3.4-2.65-2.71-7.06-8.82-11.84-15.94-11.84-6.55,0-11.28,3.97-11.28,9.39,0,4.85,3.91,8.06,12.92,10.77,15.06,4.54,21.04,10.14,21.04,19.66,0,11.47-8.88,18.96-22.43,18.96-4.91,0-10.02-1.07-16.95-3.47Z"/></g></svg>